<svg width="17" height="24" viewBox="0 0 17 24" xmlns="http://www.w3.org/2000/svg">
    <g fill="#959FBA" fill-rule="nonzero">
        <path d="M5.695.2C4.528-.204 3.19.257 2.708 1.228L.67 8.877l4.573-4.63c.804-.394 1.368-.915 1.69-1.562C7.415 1.714 6.86.6 5.695.199z"/>
        <path d="M2.09 6.652C4.502 4.23 7.032 1.306 8.117.582c.989-.66 2.307-.884 3.187 0a2.27 2.27 0 0 1 0 3.2c-1.626 1.633-4.646 4.684-6.197 6.24 3.363-3.377 5.636-3.667 9.015-.316.89.882.695 2.025-.183 2.918-.88.893-1.99.81-2.964 0-.975-.81-2.244-1.96-4.066.321-.852 1.067-.875 1.82-.854 2.467.024.737.194 1.337.834 2.083 1.203 1.403 2.451 1.622 4.066 0a4.133 4.133 0 0 0 1.123-2.083 2.254 2.254 0 0 1 2.665-1.755c1.218.254 2 1.452 1.748 2.676a8.654 8.654 0 0 1-2.35 4.362 8.603 8.603 0 0 1-3.17 2.029c-1.772.641-3.987.718-5.884-.143C3.19 21.721.743 20.075.309 16.61c-.202-1.61-.195-3.506.02-5.69.204-2.317.633-3.136 1.76-4.267z"/>
    </g>
</svg>
