<svg width="52" height="52" viewBox="0 0 52 52" xmlns="http://www.w3.org/2000/svg" xmlns:xlink="http://www.w3.org/1999/xlink">
    <defs>
        <filter x="-56.2%" y="-37.5%" width="212.5%" height="212.5%" filterUnits="objectBoundingBox" id="a">
            <feOffset dy="6" in="SourceAlpha" result="shadowOffsetOuter1"/>
            <feGaussianBlur stdDeviation="5" in="shadowOffsetOuter1" result="shadowBlurOuter1"/>
            <feComposite in="shadowBlurOuter1" in2="SourceAlpha" operator="out" result="shadowBlurOuter1"/>
            <feColorMatrix values="0 0 0 0 0.51372549 0 0 0 0 0.525490196 0 0 0 0 0.639215686 0 0 0 0.12 0" in="shadowBlurOuter1"/>
        </filter>
        <circle id="b" cx="16" cy="16" r="16"/>
    </defs>
    <g fill="none" fill-rule="evenodd">
        <g transform="translate(10 4)">
            <use fill="#000" filter="url(#a)" xlink:href="#b"/>
            <use fill="#FFF" xlink:href="#b"/>
        </g>
        <path d="m34.903 17.828-1.567-.199a7.875 7.875 0 0 0-.474-1.145l.967-1.246a1.239 1.239 0 0 0-.102-1.649l-1.312-1.312a1.242 1.242 0 0 0-1.654-.106l-1.244.967a7.847 7.847 0 0 0-1.146-.474l-.2-1.564a1.248 1.248 0 0 0-1.238-1.1h-1.866c-.631 0-1.164.473-1.239 1.098l-.199 1.566c-.398.13-.782.288-1.146.474l-1.245-.967a1.24 1.24 0 0 0-1.649.102l-1.312 1.311a1.242 1.242 0 0 0-.106 1.655l.967 1.245a7.783 7.783 0 0 0-.474 1.145l-1.564.2c-.628.074-1.1.607-1.1 1.238v1.866c0 .631.473 1.164 1.098 1.239l1.566.199c.13.397.288.78.474 1.145l-.967 1.246a1.239 1.239 0 0 0 .102 1.649l1.312 1.312c.438.451 1.15.496 1.654.105l1.245-.967c.364.186.748.346 1.145.474l.2 1.563c.074.63.607 1.102 1.238 1.102h1.866c.631 0 1.164-.473 1.239-1.098l.199-1.566c.397-.13.78-.288 1.145-.474l1.246.967a1.239 1.239 0 0 0 1.649-.102l1.312-1.312c.452-.438.498-1.15.106-1.654l-.967-1.245c.186-.364.345-.748.474-1.145l1.563-.2a1.248 1.248 0 0 0 1.1-1.238v-1.866c.001-.631-.471-1.164-1.096-1.239zM26 24.167A4.171 4.171 0 0 1 21.833 20 4.171 4.171 0 0 1 26 15.833 4.171 4.171 0 0 1 30.167 20 4.171 4.171 0 0 1 26 24.167z" fill="#007AFF" fill-rule="nonzero"/>
    </g>
</svg>
