<svg width="32" height="32" viewBox="0 0 32 32" xmlns="http://www.w3.org/2000/svg">
    <g fill="none" fill-rule="evenodd">
        <path d="M0 0h32v32H0z"/>
        <path d="M4 4h24v24H4z"/>
        <g fill="#2E374D" fill-rule="nonzero">
            <path d="M19.421 10.372a.5.5 0 0 1-.68.051l-2.855-2.285a2.5 2.5 0 0 0-3.329.184l-6.868 6.867a1.5 1.5 0 0 0 2.122 2.122l6.234-6.235a.5.5 0 0 1 .666-.036l2.889 2.308a2.521 2.521 0 0 0 3.384-.248l3.454-3.734a.249.249 0 0 1 .36-.007l1.422 1.421a.75.75 0 0 0 1.28-.53v-5.5a.75.75 0 0 0-.75-.75h-5.5a.75.75 0 0 0-.53 1.28l1.6 1.6a.251.251 0 0 1 .007.347l-2.906 3.145zM25 25h-7a1.5 1.5 0 0 0 0 3h7a1.5 1.5 0 0 0 0-3zM7 28h7a1.5 1.5 0 0 0 0-3H7a1.5 1.5 0 0 0 0 3zM13 23.5a1.5 1.5 0 0 0 0-3H6a1.5 1.5 0 0 0 0 3h7zM27.5 22a1.5 1.5 0 0 0-1.5-1.5h-7a1.5 1.5 0 0 0 0 3h7a1.5 1.5 0 0 0 1.5-1.5zM18 19h7a1.5 1.5 0 0 0 0-3h-7a1.5 1.5 0 0 0 0 3z"/>
        </g>
    </g>
</svg>
